<?xml version="1.0" encoding="UTF-8"?>
<svg xmlns="http://www.w3.org/2000/svg" xmlns:xlink="http://www.w3.org/1999/xlink" width="520px" height="px" viewBox="0 0 1024 1024" version="1.1">
<g id="surface1">
<path style=" stroke:none;fill-rule:nonzero;fill:rgb(0%,0%,0%);fill-opacity:1;" d="M 483.617188 0.00390625 C 392.855469 0.00390625 307.886719 25.332031 235.253906 68.921875 C 214.542969 52.082031 188.519531 42.707031 161.441406 42.703125 C 161.4375 42.703125 161.433594 42.703125 161.429688 42.703125 C 96.9375 42.703125 44.054688 95.589844 44.058594 160.085938 C 44.058594 160.09375 44.058594 160.105469 44.058594 160.117188 C 44.089844 187.046875 53.425781 212.863281 69.988281 233.484375 C 25.75 306.503906 0.0234375 392.113281 0.0234375 483.601562 C -0.0976562 493.699219 5.222656 503.082031 13.949219 508.167969 C 22.679688 513.25 33.464844 513.25 42.191406 508.167969 C 50.917969 503.082031 56.238281 493.699219 56.121094 483.601562 C 56.121094 404.554688 77.621094 330.804688 114.929688 267.363281 C 129.542969 273.714844 145.242188 277.441406 161.390625 277.464844 C 161.40625 277.464844 161.417969 277.464844 161.429688 277.464844 C 225.925781 277.46875 278.816406 224.578125 278.8125 160.082031 C 278.8125 160.078125 278.8125 160.074219 278.8125 160.070312 C 278.808594 144.074219 275.167969 128.511719 268.949219 114 C 332.042969 77.253906 405.21875 56.097656 483.621094 56.097656 C 493.71875 56.214844 503.101562 50.894531 508.1875 42.167969 C 513.269531 33.441406 513.269531 22.652344 508.1875 13.925781 C 503.101562 5.199219 493.71875 -0.121094 483.621094 -0.00390625 Z M 161.40625 98.800781 C 180.328125 98.804688 197.21875 106.839844 208.882812 121.445312 C 209.074219 121.679688 209.269531 121.90625 209.46875 122.132812 C 218.015625 132.949219 222.691406 146.300781 222.695312 160.09375 C 222.691406 194.261719 195.597656 221.355469 161.4375 221.367188 C 147.453125 221.34375 133.914062 216.539062 123.035156 207.753906 C 123.023438 207.742188 123.007812 207.734375 122.996094 207.722656 C 108.550781 196.097656 100.160156 178.609375 100.132812 160.066406 C 100.144531 125.898438 127.238281 98.804688 161.410156 98.800781 Z M 161.40625 98.800781 "/>
<path style=" stroke:none;fill-rule:nonzero;fill:rgb(0%,0%,0%);fill-opacity:1;" d="M 540.382812 1024 C 631.144531 1024 716.113281 998.671875 788.75 955.078125 C 809.460938 971.917969 835.484375 981.292969 862.5625 981.300781 C 862.566406 981.300781 862.570312 981.300781 862.574219 981.300781 C 927.070312 981.296875 979.953125 928.410156 979.949219 863.917969 C 979.949219 863.90625 979.949219 863.894531 979.949219 863.882812 C 979.917969 836.953125 970.582031 811.132812 954.019531 790.515625 C 998.257812 717.492188 1023.988281 631.882812 1023.988281 540.394531 C 1024.117188 530.289062 1018.796875 520.898438 1010.066406 515.808594 C 1001.335938 510.71875 990.542969 510.71875 981.8125 515.808594 C 973.082031 520.898438 967.761719 530.289062 967.890625 540.394531 C 967.890625 619.445312 946.386719 693.191406 909.082031 756.636719 C 894.46875 750.285156 878.765625 746.558594 862.621094 746.53125 C 862.605469 746.53125 862.59375 746.53125 862.578125 746.53125 C 798.082031 746.53125 745.195312 799.417969 745.199219 863.914062 C 745.203125 879.914062 748.839844 895.476562 755.0625 909.984375 C 691.96875 946.734375 618.789062 967.890625 540.386719 967.890625 C 530.28125 967.761719 520.890625 973.082031 515.796875 981.8125 C 510.707031 990.542969 510.707031 1001.335938 515.796875 1010.066406 C 520.890625 1018.796875 530.28125 1024.117188 540.386719 1023.988281 Z M 862.59375 925.199219 C 843.671875 925.199219 826.78125 917.160156 815.117188 902.554688 C 814.925781 902.320312 814.730469 902.09375 814.53125 901.867188 C 805.984375 891.050781 801.308594 877.699219 801.304688 863.90625 C 801.308594 829.738281 828.402344 802.644531 862.5625 802.632812 C 876.546875 802.65625 890.089844 807.460938 900.964844 816.246094 C 900.976562 816.257812 900.992188 816.265625 901.003906 816.277344 C 915.449219 827.902344 923.839844 845.390625 923.867188 863.933594 C 923.855469 898.101562 896.761719 925.199219 862.59375 925.199219 Z M 862.59375 925.199219 "/>
</g>
</svg>
