<?xml version="1.0" encoding="UTF-8"?>
<svg xmlns="http://www.w3.org/2000/svg" xmlns:xlink="http://www.w3.org/1999/xlink" width="520px" height="520px" viewBox="0 0 1024 1024" version="1.1">
<g id="surface1">
<path style=" stroke:none;fill-rule:nonzero;fill:rgb(0%,0%,0%);fill-opacity:1;" d="M 828 268.800781 C 816.800781 272.800781 815 274 814.398438 278.601562 C 814 281.601562 813.398438 284 812.800781 284 C 812.199219 284 807.601562 281.800781 802.398438 279.199219 C 775.800781 265.601562 745.398438 264.199219 722 275.398438 C 704.601562 283.398438 692.199219 295 684 310.398438 C 678.199219 321.398438 677.199219 324.800781 677.199219 338 C 677 356.601562 682.398438 368.398438 696.601562 381.199219 C 706.199219 389.800781 725 398.199219 775 416.199219 C 804.601562 427 817.800781 444.199219 813 466 C 811.199219 474.199219 801.601562 485 791.199219 490.601562 C 784.398438 494.199219 779.800781 495 763 495 C 746.398438 495 741.601562 494.199219 735 490.601562 C 718.601562 481.800781 709 466 706.800781 444.199219 L 705.398438 432 L 675.398438 432 L 676.601562 448.398438 C 677.800781 468.199219 683.398438 484.199219 693 495.398438 C 696.800781 500 700 504.199219 700 504.800781 C 700 505.398438 690 506 678 506 L 656 506 L 656 616.398438 L 656.199219 727 L 641 727.601562 L 626 728.199219 L 626 758 L 690 758 L 690 657 C 690 601.398438 690.800781 556 691.601562 556 C 692.398438 556 719.199219 601.398438 751 657 L 809 758 L 856 758 L 856 506 L 843 506 C 829.199219 506 827.601562 504.800781 834 499 C 842 491.800781 848.398438 474.199219 849.601562 456.800781 C 850.398438 442.398438 850 439.199219 845.601562 429.800781 C 839.800781 417 831.398438 408 815.199219 397.800781 C 801.601562 388.800781 789 383.800781 762.398438 376.800781 C 730.199219 368.199219 716.800781 359.199219 711.800781 342.398438 C 703.398438 314 743.800781 287 779.601562 297 C 801.800781 303.199219 814 322.601562 814 351.398438 L 814 364 L 844 364 L 844 314 C 844 286.398438 843.398438 264 842.601562 264.199219 C 841.601562 264.199219 835.199219 266.398438 828 268.800781 Z M 720.398438 516.398438 C 734.398438 523.199219 753.800781 526.601562 772 525.199219 C 788.398438 524.199219 809.601562 518.601562 815.398438 513.800781 C 816.800781 512.398438 818.601562 511.800781 819 512.398438 C 819.601562 513 819.800781 556.800781 819.601562 609.800781 L 819 706.199219 L 808.601562 688.601562 C 803 679 776.601562 634.199219 750.199219 589.398438 C 723.601562 544.398438 702 507.199219 702 506.601562 C 702 506 704.398438 507.199219 707.601562 509.199219 C 710.601562 511.199219 716.398438 514.398438 720.398438 516.398438 Z M 720.398438 516.398438 "/>
<path style=" stroke:none;fill-rule:nonzero;fill:rgb(0%,0%,0%);fill-opacity:1;" d="M 478 270.199219 C 463.398438 273 438 286.601562 426.398438 298.199219 C 411.601562 312.800781 404.199219 324.199219 397.601562 342.800781 C 392.398438 358.199219 392 360.800781 392 394.601562 C 392 427.601562 392.398438 431.398438 397 445.398438 C 399.800781 453.800781 404.601562 464.601562 407.601562 469.800781 C 414.800781 482 432.800781 499.800781 445.800781 507.398438 L 456.398438 513.398438 L 445.601562 519.398438 C 434.398438 525.800781 417.398438 542.199219 409.398438 554 C 406.800781 557.800781 402 567.199219 398.800781 575 C 393.199219 588.398438 393 590.398438 392.398438 627 C 391.601562 663.601562 391.800781 665.398438 397 681.398438 C 407.601562 713.800781 431.601562 739.199219 463 751.199219 C 475.199219 756 480.601562 756.800781 506 757.601562 C 528.800781 758.199219 537.800781 757.601562 547.800781 755 C 584.398438 745.601562 614 718.199219 626.398438 682.398438 C 630.601562 670.199219 631 665.601562 631 631 C 631 596.398438 630.601562 591.800781 626.398438 579.601562 C 617.800781 554.800781 599.199219 532 577.398438 519.199219 C 572.199219 516.199219 568 513.199219 568 512.800781 C 568 512.398438 571.398438 510.398438 575.800781 508.199219 C 587.199219 502.398438 605.601562 484.601562 614.199219 471.398438 C 618.398438 465 623.800781 453.800781 626.398438 446.398438 C 630.601562 434.199219 631 429.601562 631 395 C 631 360.398438 630.601562 355.800781 626.398438 343.601562 C 613.800781 307.199219 580.800781 277.800781 544.398438 270.199219 C 532.199219 267.601562 491.199219 267.601562 478 270.199219 Z M 535.199219 296.800781 C 559.800781 303.398438 579.398438 319.800781 590.601562 343.601562 C 596.800781 356.601562 597 358 597.601562 388.398438 C 598.800781 433.800781 593.800781 450.601562 573.601562 471.199219 C 555.601562 489.601562 533.800781 497.199219 504 495.601562 C 490 494.800781 484.199219 493.398438 473.398438 488.199219 C 455.800781 479.800781 441.601562 465.601562 433.398438 448.601562 L 427 435 L 427 355 L 433.398438 342 C 440.199219 328 452.199219 314.601562 465 306.398438 C 482.398438 295.199219 513.398438 291 535.199219 296.800781 Z M 540.199219 534 C 556.398438 539.601562 565.199219 545.398438 577.398438 558.800781 C 593.601562 576.398438 596.601562 586.601562 597.601562 625 C 598.800781 671.800781 595 684.800781 574.398438 706.398438 C 567.199219 714 558.601562 720.398438 550.199219 724.601562 C 537.398438 730.800781 536 731 512 731 C 488 731 486.398438 730.800781 473.398438 724.601562 C 439.199219 708.398438 424 679.800781 424 631 C 424 598.800781 428.398438 582 441.398438 563.601562 C 461.601562 535.398438 505.199219 522.199219 540.199219 534 Z M 540.199219 534 "/>
<path style=" stroke:none;fill-rule:nonzero;fill:rgb(0%,0%,0%);fill-opacity:1;" d="M 172 381.601562 L 172 494 L 140 494 L 140 522 L 186.601562 522 L 178.800781 529.398438 C 162 545.199219 150.601562 565.601562 145 590 C 140.398438 609.601562 140.398438 653 144.800781 673.800781 C 151.398438 703.601562 172.800781 733.199219 197.398438 746.601562 C 219 758.199219 250.601562 762.601562 278.800781 758 C 316.601562 751.800781 348.398438 719.800781 356.199219 680.398438 C 357.398438 673.601562 358.199219 667.601562 357.800781 667.199219 C 357.398438 666.800781 350 666 341.601562 665.601562 C 326.800781 665 326 665.199219 326 669.199219 C 326 675.199219 320 692 315 700 C 292.398438 736 237.398438 741.800781 203.199219 711.800781 C 186 696.601562 177.800781 678.800781 173.800781 648.199219 C 171.800781 633.199219 172 627 174.800781 611 C 180.800781 574.800781 196.800781 549.800781 221.601562 537.601562 C 233.800781 531.601562 236.800781 531 256.601562 530.398438 C 277.601562 529.601562 278.800781 529.800781 291 535.800781 C 303.398438 542 310.199219 548.601562 317 562 C 321.601562 571 326 587.199219 326 595.398438 L 326 602 L 358 602 L 358 550 C 358 521.398438 357.398438 498 356.601562 498 C 355.601562 498 348.601562 500 340.601562 502.199219 L 326.199219 506.601562 L 325.601562 515.800781 L 325 525 L 314.398438 518.800781 L 304 512.398438 L 315.398438 506 C 342.199219 490.800781 363.398438 459.398438 368.199219 428 C 371.398438 406.800781 369.398438 368.398438 364.199219 352 C 352.199219 314.199219 322 285.398438 283 275.199219 C 274.398438 272.800781 256.800781 271.601562 221.601562 270.601562 L 172 269.398438 Z M 277.601562 304 C 302.800781 312.800781 325.398438 335.800781 333.199219 360.800781 C 338 376.398438 339 408.199219 335.199219 424.800781 C 328.398438 453.199219 311.800781 474.800781 287.398438 486 C 271 493.800781 258.199219 496 229.800781 496 L 206 496 L 206 297.398438 L 235.601562 298.601562 C 258.398438 299.398438 267.800781 300.601562 277.601562 304 Z M 277.601562 304 "/>
</g>
</svg>
