<?xml version="1.0" standalone="no"?>
<!DOCTYPE svg PUBLIC "-//W3C//DTD SVG 1.0//EN" "http://www.w3.org/TR/2001/REC-SVG-20010904/DTD/svg10.dtd">
<svg xmlns="http://www.w3.org/2000/svg" xmlns:xlink="http://www.w3.org/1999/xlink" id="body_1" width="320" height="320">

<g transform="matrix(0.625 0 0 0.625 0 0)">
	<g transform="matrix(0.1 0 -0 -0.1 0 512)">
        <path d="M4140 3776C 4084 3756 4075 3750 4072 3727C 4070 3712 4067 3700 4064 3700C 4061 3700 4038 3711 4012 3724C 3879 3792 3727 3799 3610 3743C 3523 3703 3461 3645 3420 3568C 3391 3513 3386 3496 3386 3430C 3385 3337 3412 3278 3483 3214C 3531 3171 3625 3129 3875 3039C 4023 2985 4089 2899 4065 2790C 4056 2749 4008 2695 3956 2667C 3922 2649 3899 2645 3815 2645C 3732 2645 3708 2649 3675 2667C 3593 2711 3545 2790 3534 2899L3534 2899L3527 2960L3452 2960L3377 2960L3383 2878C 3389 2779 3417 2699 3465 2643C 3484 2620 3500 2599 3500 2596C 3500 2593 3450 2590 3390 2590L3390 2590L3280 2590L3280 2038L3281 1485L3205 1482L3130 1479L3130 1405L3130 1330L3290 1330L3450 1330L3450 1835C 3450 2113 3454 2340 3458 2340C 3462 2340 3596 2113 3755 1835L3755 1835L4045 1330L4163 1330L4280 1330L4280 1960L4280 2590L4215 2590C 4146 2590 4138 2596 4170 2625C 4210 2661 4242 2749 4248 2836C 4252 2908 4250 2924 4228 2971C 4199 3035 4157 3080 4076 3131C 4008 3176 3945 3201 3812 3236C 3651 3279 3584 3324 3559 3408C 3517 3550 3719 3685 3898 3635C 4009 3604 4070 3507 4070 3363L4070 3363L4070 3300L4145 3300L4220 3300L4220 3550C 4220 3688 4217 3800 4213 3799C 4208 3799 4176 3788 4140 3776zM3602 2538C 3672 2504 3769 2487 3860 2494C 3942 2499 4048 2527 4077 2551C 4084 2558 4093 2561 4095 2558C 4098 2555 4099 2336 4098 2071L4098 2071L4095 1589L4043 1677C 4015 1725 3883 1949 3751 2173C 3618 2398 3510 2584 3510 2587C 3510 2590 3522 2584 3538 2574C 3553 2564 3582 2548 3602 2538z" stroke="none" fill="#000000" fill-rule="nonzero" />
        <path d="M2390 3769C 2317 3755 2190 3687 2132 3629C 2058 3556 2021 3499 1988 3406C 1962 3329 1960 3316 1960 3147C 1960 2982 1962 2963 1985 2893C 1999 2851 2023 2797 2038 2771C 2074 2710 2164 2621 2229 2583L2229 2583L2282 2553L2228 2523C 2172 2491 2087 2409 2047 2350C 2034 2331 2010 2284 1994 2245C 1966 2178 1965 2168 1962 1985C 1958 1802 1959 1793 1985 1713C 2038 1551 2158 1424 2315 1364C 2376 1340 2403 1336 2530 1332C 2644 1329 2689 1332 2739 1345C 2922 1392 3070 1529 3132 1708C 3153 1769 3155 1792 3155 1965C 3155 2138 3153 2161 3132 2222C 3089 2346 2996 2460 2887 2524C 2861 2539 2840 2554 2840 2556C 2840 2558 2857 2568 2879 2579C 2936 2608 3028 2697 3071 2763C 3092 2795 3119 2851 3132 2888C 3153 2949 3155 2972 3155 3145C 3155 3318 3153 3341 3132 3402C 3069 3584 2904 3731 2722 3769C 2661 3782 2456 3782 2390 3769zM2676 3636C 2799 3603 2897 3521 2953 3402C 2984 3337 2985 3330 2988 3178C 2994 2951 2969 2867 2868 2764C 2778 2672 2669 2634 2520 2642C 2450 2646 2421 2653 2367 2679C 2279 2721 2208 2792 2167 2877L2167 2877L2135 2945L2135 3145L2135 3345L2167 3410C 2201 3480 2261 3547 2325 3588C 2412 3644 2567 3665 2676 3636zM2701 2450C 2782 2422 2826 2393 2887 2326C 2968 2238 2983 2187 2988 1995C 2994 1761 2975 1696 2872 1588C 2836 1550 2793 1518 2751 1497C 2687 1466 2680 1465 2560 1465C 2440 1465 2432 1466 2367 1497C 2196 1578 2120 1721 2120 1965C 2120 2126 2142 2210 2207 2302C 2308 2443 2526 2509 2701 2450z" stroke="none" fill="#000000" fill-rule="nonzero" />
        <path d="M860 3212L860 2650L780 2650L700 2650L700 2580L700 2510L817 2510L933 2510L894 2473C 810 2394 753 2292 725 2170C 702 2072 702 1855 724 1751C 757 1602 864 1454 987 1387C 1095 1329 1253 1307 1394 1330C 1583 1361 1742 1521 1781 1718C 1787 1752 1791 1782 1789 1784C 1787 1786 1750 1790 1708 1792C 1634 1795 1630 1794 1630 1774C 1630 1744 1600 1660 1575 1620C 1462 1440 1187 1411 1016 1561C 930 1637 889 1726 869 1879C 859 1954 860 1985 874 2065C 904 2246 984 2371 1108 2432C 1169 2462 1184 2465 1283 2468C 1388 2472 1394 2471 1455 2441C 1517 2410 1551 2377 1585 2310C 1608 2265 1630 2184 1630 2143L1630 2143L1630 2110L1710 2110L1790 2110L1790 2370C 1790 2513 1787 2630 1783 2630C 1778 2630 1743 2620 1703 2609L1703 2609L1631 2587L1628 2541L1625 2495L1572 2526L1520 2558L1577 2590C 1711 2666 1817 2823 1841 2980C 1857 3086 1847 3278 1821 3360C 1761 3549 1610 3693 1415 3744C 1372 3756 1284 3762 1108 3767L1108 3767L860 3773L860 3212zM1388 3600C 1514 3556 1627 3441 1666 3316C 1690 3238 1695 3079 1676 2996C 1642 2854 1559 2746 1437 2690C 1355 2651 1291 2640 1149 2640L1149 2640L1030 2640L1030 3136L1030 3633L1178 3627C 1292 3623 1339 3617 1388 3600z" stroke="none" fill="#000000" fill-rule="nonzero" />
	</g>
</g>
</svg>